<?xml version="1.0" encoding="UTF-8" standalone="no"?>
<!DOCTYPE svg PUBLIC "-//W3C//DTD SVG 1.1//EN" "http://www.w3.org/Graphics/SVG/1.1/DTD/svg11.dtd">
<svg width="100%" height="100%" viewBox="0 0 384 384" version="1.1" xmlns="http://www.w3.org/2000/svg" xmlns:xlink="http://www.w3.org/1999/xlink" xml:space="preserve">
    <path d="M344.528,113.787c0.243,3.411 0.243,6.823 0.243,10.234c0,104.04 -79.187,223.918 -223.918,223.918c-44.589,0 -86.01,-12.914 -120.853,-35.329c6.335,0.73 12.426,0.974 19.005,0.974c36.791,0 70.66,-12.426 97.706,-33.624c-34.599,-0.731 -63.594,-23.391 -73.584,-54.579c4.873,0.731 9.746,1.218 14.863,1.218c7.066,0 14.132,-0.975 20.711,-2.68c-36.061,-7.31 -63.108,-38.985 -63.108,-77.238l0,-0.975c10.477,5.848 22.661,9.503 35.574,9.99c-21.198,-14.133 -35.086,-38.254 -35.086,-65.544c0,-14.619 3.898,-28.02 10.72,-39.715c38.742,47.756 96.975,78.943 162.274,82.355c-1.218,-5.848 -1.949,-11.938 -1.949,-18.03c0,-43.371 35.086,-78.7 78.7,-78.7c22.66,0 43.127,9.502 57.503,24.852c17.786,-3.411 34.842,-9.99 49.949,-19.005c-5.848,18.275 -18.274,33.625 -34.599,43.371c15.838,-1.705 31.188,-6.092 45.32,-12.183c-10.719,15.594 -24.121,29.481 -39.471,40.69Z" style="fill:#fff;"/>
</svg>
