<?xml version="1.0" encoding="UTF-8" standalone="no"?>
<!DOCTYPE svg PUBLIC "-//W3C//DTD SVG 1.1//EN" "http://www.w3.org/Graphics/SVG/1.1/DTD/svg11.dtd">
<svg width="100%" height="100%" viewBox="0 0 1400 1600" version="1.1" xmlns="http://www.w3.org/2000/svg" xmlns:xlink="http://www.w3.org/1999/xlink" xml:space="preserve">
    <rect x="23.125" y="465.282" width="290.25" height="934.688" style="fill:#fff;"/>
    <path d="M168.094,337.78c-92.813,0 -168.094,-76.875 -168.094,-169.687c0,-92.214 75.88,-168.094 168.094,-168.094c92.213,0 168.093,75.88 168.094,168.094c0,92.812 -75.313,169.687 -168.094,169.687Z" style="fill:#fff;"/>
    <path d="M1399.68,1399.97l-289.626,0l0,-455c0,-108.438 -2.187,-247.5 -150.906,-247.5c-150.906,0 -174.031,117.812 -174.031,239.687l0,462.813l-289.938,0l0,-934.688l278.375,0l0,127.5l4.063,0c38.75,-73.437 133.406,-150.937 274.625,-150.937c293.75,0 347.75,193.437 347.75,444.687l0,513.438l-0.313,0l0.001,0Z" style="fill:#fff;"/>
</svg>
