<?xml version="1.0" encoding="UTF-8" standalone="no"?>
<!DOCTYPE svg PUBLIC "-//W3C//DTD SVG 1.1//EN" "http://www.w3.org/Graphics/SVG/1.1/DTD/svg11.dtd">
<svg width="100%" height="100%" viewBox="0 0 86 103" version="1.1" xmlns="http://www.w3.org/2000/svg" xmlns:xlink="http://www.w3.org/1999/xlink" xml:space="preserve">
    <path d="M2.086,24.371l20.465,0l23.855,41.818l20.128,-41.818l17.269,0l-37.397,75.381l-44.32,-75.381Z" style="fill:#000;"/>
    <path d="M0.019,23.177l21.667,-22.801c0.323,-0.29 0.381,-0.404 0.87,-0.37l0.407,0.072l62.565,23.037c0,0 0.023,0.022 0.061,0.062l0.138,0l-39.232,79.081l-46.484,-79.062l-0.01,0l0.006,-0.007l-0.007,-0.012l0.019,0Zm21.839,2.387l-17.686,0l42.145,71.683l35.561,-71.683l-14.594,0l-20.789,43.19l-24.637,-43.19Zm1.449,-2.276l23.009,40.335l18.718,-38.888l-41.328,-21.587l-0.399,20.14Zm55.482,-0.111l-39.253,-14.453c9.223,4.818 18.447,9.635 27.67,14.453l0,0l11.583,0Zm-75.478,0l17.611,0l0.375,-18.927l-17.986,18.927Z" style="fill:#000;"/>
</svg>
